<svg width="70" height="66" viewBox="0 0 70 66" fill="none" xmlns="http://www.w3.org/2000/svg">
<path d="M69.3617 26.0096C69.2921 25.6575 69.1475 25.3246 68.9377 25.0334C68.728 24.7422 68.458 24.4996 68.1461 24.3221L58.8242 19.0096L58.7867 8.50332C58.7856 8.14149 58.7059 7.78422 58.5532 7.45618C58.4006 7.12814 58.1785 6.83716 57.9024 6.60332C54.5209 3.74301 50.6269 1.55103 46.4274 0.143951C46.0966 0.0320127 45.7462 -0.00941259 45.3985 0.0223429C45.0508 0.0540984 44.7136 0.158331 44.4086 0.328326L35.0055 5.58457L25.593 0.318951C25.2878 0.147998 24.9502 0.0429788 24.6019 0.0106813C24.2537 -0.0216163 23.9025 0.0195266 23.5711 0.13145C19.3741 1.54757 15.4844 3.74803 12.1086 6.61583C11.8329 6.84932 11.611 7.1398 11.4584 7.46726C11.3057 7.79473 11.2258 8.1514 11.2242 8.5127L11.1774 19.0283L1.85548 24.3408C1.54361 24.5184 1.27362 24.761 1.06386 25.0522C0.854098 25.3433 0.709487 25.6763 0.639853 26.0283C-0.213284 30.3155 -0.213284 34.7287 0.639853 39.0158C0.709487 39.3679 0.854098 39.7008 1.06386 39.992C1.27362 40.2832 1.54361 40.5258 1.85548 40.7033L11.1774 46.0158L11.2149 56.5252C11.216 56.887 11.2956 57.2443 11.4483 57.5723C11.601 57.9004 11.8231 58.1914 12.0992 58.4252C15.4807 61.2855 19.3747 63.4775 23.5742 64.8846C23.9049 64.9965 24.2554 65.0379 24.6031 65.0062C24.9508 64.9744 25.288 64.8702 25.593 64.7002L35.0055 59.4283L44.418 64.6939C44.7905 64.9015 45.2103 65.0091 45.6367 65.0064C45.9098 65.0064 46.181 64.962 46.4399 64.8752C50.6358 63.4597 54.5253 61.2615 57.9024 58.3971C58.1781 58.1636 58.3999 57.8731 58.5526 57.5456C58.7053 57.2182 58.7851 56.8615 58.7867 56.5002L58.8336 45.9846L68.1555 40.6721C68.4673 40.4945 68.7373 40.2519 68.9471 39.9607C69.1569 39.6696 69.3015 39.3366 69.3711 38.9846C70.2195 34.7009 70.2163 30.292 69.3617 26.0096ZM35.0055 45.0064C32.5332 45.0064 30.1165 44.2733 28.0608 42.8998C26.0052 41.5263 24.4031 39.5741 23.457 37.29C22.5109 35.0059 22.2633 32.4926 22.7457 30.0678C23.228 27.6431 24.4185 25.4158 26.1666 23.6676C27.9148 21.9195 30.1421 20.7289 32.5668 20.2466C34.9916 19.7643 37.5049 20.0119 39.789 20.958C42.0731 21.904 44.0253 23.5062 45.3988 25.5618C46.7724 27.6174 47.5055 30.0342 47.5055 32.5064C47.5055 35.8217 46.1885 39.0011 43.8443 41.3453C41.5001 43.6895 38.3207 45.0064 35.0055 45.0064Z" fill="#ABFF02"/>
</svg>
