<svg width="165" height="30" viewBox="0 0 165 30" fill="none" xmlns="http://www.w3.org/2000/svg">
<path d="M26.5693 0C28.083 8.75176e-05 29.3096 1.22755 29.3096 2.74121V26.5693C29.3095 28.0829 28.0829 29.3095 26.5693 29.3096H2.74121C1.22755 29.3096 8.69405e-05 28.083 0 26.5693V2.74121C0 1.2275 1.2275 0 2.74121 0H26.5693ZM13.1484 3.96094C12.909 3.96094 12.6867 4.08632 12.5625 4.29102L2.47656 20.9082C2.41165 21.0153 2.37695 21.1384 2.37695 21.2637V24.6641C2.37695 25.0425 2.68407 25.3496 3.0625 25.3496H7.39258C7.63435 25.3496 7.85799 25.2215 7.98145 25.0137L13.9727 14.9277C14.0752 14.7551 14.0962 14.5455 14.0312 14.3555L12.3662 9.48633C12.3028 9.30052 12.3218 9.09638 12.4189 8.92578L13.1533 7.6377C13.2117 7.53523 13.3641 7.54957 13.4023 7.66113L19.3145 24.8867C19.4095 25.1635 19.6702 25.3496 19.9629 25.3496H24.665C25.0433 25.3494 25.3496 25.0424 25.3496 24.6641V21.1855C25.3496 21.1101 25.337 21.0353 25.3125 20.9639L19.6328 4.42383C19.5378 4.14708 19.277 3.96098 18.9844 3.96094H13.1484Z" fill="#484036"/>
<path d="M34.6706 22.1553L44.5157 6.80666H48.7913L52.4969 22.1553H48.1774L45.4366 8.86776H47.1468L39.2533 22.1553H34.6706ZM38.9682 19.1733L40.7224 15.972H48.2212L48.7036 19.1733H38.9682ZM53.7497 22.1553L56.8194 6.80666H61.1608L58.7928 18.7128H66.1163L65.4146 22.1553H53.7497ZM67.1326 22.1553L70.2023 6.80666H76.6926C78.6806 6.80666 80.2154 7.23789 81.2972 8.10033C82.3789 8.96278 82.9197 10.176 82.9197 11.7401C82.9197 13.0265 82.6128 14.1521 81.9988 15.1168C81.3849 16.0816 80.5078 16.8271 79.3676 17.3534C78.2274 17.8796 76.8826 18.1427 75.3331 18.1427H70.3558L72.6581 16.2132L71.474 22.1553H67.1326ZM72.5484 16.7175L71.0355 14.7222H75.5305C76.4806 14.7222 77.2188 14.4956 77.7451 14.0424C78.2713 13.5893 78.5344 12.9461 78.5344 12.1129C78.5344 11.4697 78.3225 10.9946 77.8985 10.6877C77.4746 10.3807 76.8826 10.2272 76.1225 10.2272H71.9564L74.2587 8.16611L72.5484 16.7175ZM83.085 22.1553L86.1548 6.80666H90.4962L87.4265 22.1553H83.085ZM90.5152 22.1553L93.585 6.80666H97.159L103.364 17.0683L101.873 17.0245L103.912 6.80666H108.166L105.096 22.1553H101.522L95.3391 11.8936L96.8082 11.9375L94.769 22.1553H90.5152ZM112.72 22.1553L122.565 6.80666H126.841L130.546 22.1553H126.227L123.486 8.86776H125.196L117.302 22.1553H112.72ZM117.017 19.1733L118.772 15.972H126.27L126.753 19.1733H117.017ZM131.799 22.1553L134.869 6.80666H141.534C143.142 6.80666 144.516 7.06978 145.656 7.59602C146.811 8.12226 147.696 8.86776 148.31 9.83253C148.924 10.7827 149.231 11.9229 149.231 13.2531C149.231 14.6125 148.997 15.8404 148.529 16.9367C148.061 18.0185 147.403 18.954 146.555 19.7433C145.708 20.5181 144.699 21.1174 143.53 21.5413C142.36 21.9506 141.067 22.1553 139.649 22.1553H131.799ZM136.842 18.6909H139.78C140.876 18.6909 141.797 18.4643 142.543 18.0111C143.288 17.558 143.859 16.9441 144.253 16.1693C144.648 15.38 144.845 14.4956 144.845 13.5162C144.845 12.8292 144.699 12.2445 144.407 11.7621C144.129 11.2797 143.705 10.9142 143.135 10.6657C142.579 10.4026 141.885 10.2711 141.052 10.2711H138.508L136.842 18.6909ZM155.637 22.4622C154.76 22.4622 153.919 22.3892 153.115 22.243C152.311 22.1114 151.58 21.9214 150.923 21.6729C150.265 21.4098 149.702 21.1247 149.234 20.8178L150.945 17.5726C151.471 17.8942 152.012 18.1719 152.567 18.4058C153.137 18.6251 153.715 18.7932 154.299 18.9101C154.884 19.0271 155.469 19.0856 156.053 19.0856C156.609 19.0856 157.084 19.0344 157.479 18.9321C157.873 18.8151 158.173 18.6543 158.378 18.4497C158.582 18.245 158.685 18.0038 158.685 17.7261C158.685 17.4191 158.546 17.1779 158.268 17.0025C158.005 16.8125 157.654 16.6517 157.216 16.5201C156.777 16.3886 156.287 16.257 155.746 16.1255C155.22 15.9793 154.687 15.8112 154.146 15.6212C153.62 15.4165 153.137 15.168 152.699 14.8756C152.26 14.5687 151.902 14.1813 151.624 13.7135C151.361 13.2458 151.23 12.6684 151.23 11.9813C151.23 10.8704 151.529 9.90562 152.129 9.08703C152.728 8.26844 153.576 7.63256 154.672 7.17941C155.783 6.72626 157.091 6.49969 158.597 6.49969C159.693 6.49969 160.717 6.61663 161.667 6.85052C162.617 7.06978 163.435 7.39137 164.122 7.81529L162.544 11.0385C161.944 10.6584 161.279 10.3734 160.548 10.1834C159.832 9.97871 159.094 9.87639 158.334 9.87639C157.749 9.87639 157.245 9.94216 156.821 10.0737C156.412 10.2053 156.097 10.388 155.878 10.6219C155.673 10.8412 155.571 11.0897 155.571 11.3674C155.571 11.6597 155.703 11.9009 155.966 12.091C156.229 12.281 156.58 12.4418 157.018 12.5734C157.471 12.7049 157.961 12.8438 158.487 12.99C159.028 13.1215 159.562 13.2823 160.088 13.4723C160.614 13.6478 161.104 13.889 161.557 14.1959C162.01 14.4883 162.368 14.861 162.631 15.3142C162.895 15.7673 163.026 16.3301 163.026 17.0025C163.026 18.0989 162.726 19.0563 162.127 19.8749C161.528 20.6935 160.673 21.3294 159.562 21.7825C158.451 22.2357 157.142 22.4622 155.637 22.4622Z" fill="#484036"/>
</svg>
