<svg width="160" height="34" viewBox="0 0 160 34" fill="none" xmlns="http://www.w3.org/2000/svg">
<g clip-path="url(#clip0_2043_4046)">
<path d="M159.101 22.7197C158.605 22.7197 158.202 23.1224 158.202 23.6182C158.202 24.1139 158.605 24.5166 159.101 24.5166C159.597 24.5166 160 24.1139 160 23.6182C160 23.1224 159.597 22.7197 159.101 22.7197ZM159.101 24.3741C158.683 24.3741 158.344 24.0341 158.344 23.6182C158.344 23.2002 158.684 22.8622 159.101 22.8622C159.519 22.8622 159.86 23.2022 159.86 23.6182C159.86 24.0341 159.519 24.3741 159.101 24.3741ZM159.394 23.4643C159.394 23.3009 159.278 23.2041 159.107 23.2041H158.819V24.0227H158.96V23.7264H159.114L159.262 24.0227H159.415L159.251 23.6961C159.339 23.6561 159.394 23.5763 159.394 23.4643ZM159.101 23.5991H158.962V23.3276H159.101C159.196 23.3276 159.253 23.375 159.253 23.4624C159.253 23.5517 159.194 23.5991 159.101 23.5991ZM50.7324 13.6271V11.4541H47.3973V24.3817H50.7324V16.6301C50.7324 15.2264 51.6337 14.5369 53.0389 14.5369H54.8643V11.4541H53.3051C52.0844 11.4541 51.0234 12.0904 50.7324 13.6271ZM57.9883 6.34082C56.8475 6.34082 55.9728 7.24117 55.9728 8.38083C55.9728 9.4939 56.8475 10.3943 57.9883 10.3943C59.1292 10.3943 60.0039 9.4939 60.0039 8.38083C60.0038 7.24112 59.1292 6.34082 57.9883 6.34082ZM56.3246 24.3817H59.6521V11.4541H56.3246V24.3817ZM75.5024 17.9179C75.5024 21.6085 72.5077 24.6002 68.8132 24.6002C67.3224 24.6002 65.9705 24.112 64.8867 23.2876V28.1769H61.5592V11.4541H64.8867V12.5482C65.9705 11.7238 67.3224 11.2357 68.8132 11.2357C72.5077 11.2357 75.5024 14.2273 75.5024 17.9179ZM72.154 17.9179C72.154 15.914 70.5264 14.288 68.5204 14.288C66.5143 14.288 64.8867 15.914 64.8867 17.9179C64.8867 19.9218 66.5144 21.5477 68.5204 21.5477C70.5264 21.5477 72.154 19.9237 72.154 17.9179ZM133.336 16.784L131.395 16.2521C130.117 15.9197 129.621 15.5284 129.621 14.8541C129.621 14.1969 130.321 13.7372 131.321 13.7372C132.274 13.7372 133.021 14.3602 133.021 15.158V15.232H136.088V15.158C136.088 12.8122 134.173 11.2356 131.321 11.2356C128.497 11.2356 126.446 12.8102 126.446 14.9813C126.446 16.6699 127.566 17.9425 129.52 18.4706L131.38 18.9777C132.793 19.369 133.317 19.8021 133.317 20.579C133.317 21.3977 132.559 21.9485 131.429 21.9485C130.252 21.9485 129.459 21.2039 129.459 20.0984V20.0243H126.204V20.0984C126.204 22.7501 128.341 24.6039 131.403 24.6039C134.352 24.6039 136.493 22.7938 136.493 20.3017C136.493 19.0784 135.945 17.4792 133.336 16.784ZM87.3066 11.4541H90.634V24.3817H87.3066V23.2876C86.2227 24.112 84.8708 24.6001 83.3801 24.6001C79.6856 24.6001 76.6909 21.6085 76.6909 17.9178C76.6909 14.2272 79.6856 11.2356 83.3801 11.2356C84.8708 11.2356 86.2228 11.7238 87.3066 12.5481V11.4541ZM87.3066 17.9179C87.3066 15.9121 85.6789 14.288 83.6729 14.288C81.6668 14.288 80.0393 15.914 80.0393 17.9179C80.0393 19.9218 81.6668 21.5477 83.6729 21.5477C85.6808 21.5477 87.3066 19.9237 87.3066 17.9179ZM102.649 6.85366H105.977V24.3836H102.649V23.2895C101.565 24.1139 100.213 24.602 98.7228 24.602C95.0283 24.602 92.0335 21.6104 92.0335 17.9198C92.0335 14.2291 95.0282 11.2375 98.7228 11.2375C100.213 11.2375 101.565 11.7257 102.649 12.55V6.85366ZM102.649 17.9179C102.649 15.914 101.022 14.288 99.0155 14.288C97.0096 14.288 95.3819 15.914 95.3819 17.9179C95.3819 19.9218 97.0076 21.5477 99.0155 21.5477C101.022 21.5477 102.649 19.9237 102.649 17.9179ZM121.426 24.3817H124.753V11.4541H121.426V24.3817ZM123.09 6.34082C121.949 6.34082 121.074 7.24117 121.074 8.38083C121.074 9.4939 121.949 10.3943 123.09 10.3943C124.23 10.3943 125.105 9.4939 125.105 8.38083C125.105 7.24112 124.23 6.34082 123.09 6.34082ZM150.875 17.9179C150.875 21.6085 147.881 24.6002 144.186 24.6002C140.492 24.6002 137.497 21.6085 137.497 17.9179C137.497 14.2272 140.492 11.2357 144.186 11.2357C147.881 11.2357 150.875 14.2273 150.875 17.9179ZM147.82 17.9179C147.82 15.914 146.192 14.288 144.186 14.288C142.18 14.288 140.552 15.914 140.552 17.9179C140.552 19.9218 142.178 21.5477 144.186 21.5477C146.192 21.5477 147.82 19.9237 147.82 17.9179ZM49.0287 6.85366H36.2644V9.8187H40.9895V24.3817H44.3056V9.8187H49.0307V6.85366H49.0287ZM113.581 20.8412L110.62 11.4541H107.125L111.565 24.3817H115.569L120.036 11.4541H116.541L113.581 20.8412ZM155.751 13.6271V11.4541H152.415V24.3817H155.751V16.6301C155.751 15.2264 156.652 14.5369 158.057 14.5369H159.882V11.4541H158.323C157.102 11.4541 156.043 12.0904 155.751 13.6271Z" fill="#484036"/>
<path d="M17.0181 34.0005C26.4168 34.0005 34.0359 26.3893 34.0359 17.0005C34.0359 7.61165 26.4168 0.000488281 17.0181 0.000488281C7.61938 0.000488281 0.000244141 7.61165 0.000244141 17.0005C0.000244141 26.3893 7.61938 34.0005 17.0181 34.0005Z" fill="#34E0A1"/>
<path d="M27.5306 13.6843L29.5842 11.4524H25.0302C22.7504 9.89674 19.9971 8.99072 17.0195 8.99072C14.0456 8.99072 11.3 9.8987 9.02395 11.4524H4.45862L6.51217 13.6843C5.25344 14.8315 4.46434 16.4841 4.46434 18.3189C4.46434 21.7816 7.2747 24.589 10.741 24.589C12.3877 24.589 13.8879 23.9546 15.0078 22.9175L17.0195 25.1056L19.0313 22.9194C20.1512 23.9565 21.6495 24.589 23.2962 24.589C26.7625 24.589 29.5766 21.7816 29.5766 18.3189C29.5785 16.4822 28.7894 14.8297 27.5306 13.6843ZM10.7429 22.5623C8.39647 22.5623 6.49509 20.6629 6.49509 18.3189C6.49509 15.975 8.39652 14.0756 10.7429 14.0756C13.0892 14.0756 14.9906 15.975 14.9906 18.3189C14.9906 20.6629 13.0892 22.5623 10.7429 22.5623ZM17.0214 18.1955C17.0214 15.4032 14.9888 13.0062 12.3058 11.9824C13.7566 11.3764 15.3481 11.0402 17.0195 11.0402C18.6908 11.0402 20.2842 11.3764 21.735 11.9824C19.0541 13.0081 17.0214 15.4033 17.0214 18.1955ZM23.2981 22.5623C20.9517 22.5623 19.0502 20.6629 19.0502 18.3189C19.0502 15.975 20.9517 14.0756 23.2981 14.0756C25.6445 14.0756 27.5458 15.975 27.5458 18.3189C27.5458 20.6629 25.6444 22.5623 23.2981 22.5623ZM23.2981 16.0927C22.0678 16.0927 21.0714 17.0881 21.0714 18.317C21.0714 19.5459 22.0678 20.5413 23.2981 20.5413C24.5283 20.5413 25.5246 19.5459 25.5246 18.317C25.5246 17.09 24.5283 16.0927 23.2981 16.0927ZM12.9694 18.3189C12.9694 19.5478 11.9731 20.5432 10.7429 20.5432C9.51267 20.5432 8.5163 19.5478 8.5163 18.3189C8.5163 17.09 9.51267 16.0946 10.7429 16.0946C11.9731 16.0927 12.9694 17.09 12.9694 18.3189Z" fill="black"/>
</g>
<defs>
<clipPath id="clip0_2043_4046">
<rect width="160" height="34" fill="white"/>
</clipPath>
</defs>
</svg>
