<svg
  xmlns="http://www.w3.org/2000/svg"
  width="16"
  height="16"
  viewBox="0 0 16 16"
  fill="none"
>
  <path
    d="M9.33333 7.99984L7 9.33317V6.6665L9.33333 7.99984Z"
    fill="#887861"
    stroke="#887861"
    stroke-linecap="round"
    stroke-linejoin="round"
  />
  <path
    d="M1.33398 8.47194V7.52793C1.33398 5.59793 1.33398 4.6326 1.93732 4.01193C2.54132 3.3906 3.49198 3.36393 5.39265 3.30993C6.29265 3.2846 7.21265 3.2666 8.00065 3.2666C8.78865 3.2666 9.70798 3.2846 10.6087 3.30993C12.5093 3.36393 13.46 3.3906 14.0633 4.01193C14.6667 4.63327 14.6673 5.5986 14.6673 7.52793V8.47127C14.6673 10.4019 14.6673 11.3666 14.064 11.9879C13.46 12.6086 12.51 12.6359 10.6087 12.6893C9.70865 12.7153 8.78865 12.7333 8.00065 12.7333C7.21265 12.7333 6.29332 12.7153 5.39265 12.6893C3.49198 12.6359 2.54132 12.6093 1.93732 11.9879C1.33332 11.3666 1.33398 10.4013 1.33398 8.47194Z"
    stroke="#887861"
  />
</svg>
